<?xml version="1.0" encoding="UTF-8" standalone="no"?>
<svg
   xmlns:dc="http://purl.org/dc/elements/1.1/"
   xmlns:cc="http://creativecommons.org/ns#"
   xmlns:rdf="http://www.w3.org/1999/02/22-rdf-syntax-ns#"
   xmlns:svg="http://www.w3.org/2000/svg"
   xmlns="http://www.w3.org/2000/svg"
   xmlns:sodipodi="http://sodipodi.sourceforge.net/DTD/sodipodi-0.dtd"
   xmlns:inkscape="http://www.inkscape.org/namespaces/inkscape"
   height="105"
   viewBox="1.257 16.827 43.826288 16.865006"
   width="220"
   version="1.1"
   id="svg184"
   sodipodi:docname="elftextlogo.svg"
   inkscape:version="0.92.3 (2405546, 2018-03-11)">
  <metadata
     id="metadata190">
    <rdf:RDF>
      <cc:Work
         rdf:about="">
        <dc:format>image/svg+xml</dc:format>
        <dc:type
           rdf:resource="http://purl.org/dc/dcmitype/StillImage" />
        <dc:title></dc:title>
      </cc:Work>
    </rdf:RDF>
  </metadata>
  <defs
     id="defs188" />
  <sodipodi:namedview
     pagecolor="#ffffff"
     bordercolor="#666666"
     borderopacity="1"
     objecttolerance="10"
     gridtolerance="10"
     guidetolerance="10"
     inkscape:pageopacity="0"
     inkscape:pageshadow="2"
     inkscape:window-width="1366"
     inkscape:window-height="706"
     id="namedview186"
     showgrid="false"
     inkscape:zoom="2.0610441"
     inkscape:cx="202.21601"
     inkscape:cy="89.279665"
     inkscape:window-x="-8"
     inkscape:window-y="-8"
     inkscape:window-maximized="1"
     inkscape:current-layer="svg184" />
  <linearGradient
     id="a"
     gradientUnits="userSpaceOnUse"
     x1="341.259"
     x2="407.06299"
     y1="46.310001"
     y2="124.733"
     gradientTransform="matrix(0.1066302,0,0,0.1066302,1.9032473,15.292779)">
    <stop
       offset="0"
       stop-color="#dee1f0"
       id="stop101" />
    <stop
       offset=".841"
       stop-color="#29497c"
       id="stop103" />
  </linearGradient>
  <linearGradient
     id="b"
     gradientUnits="userSpaceOnUse"
     x1="315.935"
     x2="389.13901"
     y1="94.295998"
     y2="94.295998"
     gradientTransform="matrix(0.1066302,0,0,0.1066302,1.9032473,15.292779)">
    <stop
       offset=".214"
       stop-color="#dee1f0"
       id="stop106" />
    <stop
       offset=".222"
       stop-color="#d6d8e9"
       id="stop108" />
    <stop
       offset=".271"
       stop-color="#a8acca"
       id="stop110" />
    <stop
       offset=".323"
       stop-color="#8187ae"
       id="stop112" />
    <stop
       offset=".378"
       stop-color="#606b98"
       id="stop114" />
    <stop
       offset=".435"
       stop-color="#465789"
       id="stop116" />
    <stop
       offset=".497"
       stop-color="#304a7f"
       id="stop118" />
    <stop
       offset=".565"
       stop-color="#1d4178"
       id="stop120" />
    <stop
       offset=".644"
       stop-color="#0c3d74"
       id="stop122" />
    <stop
       offset=".758"
       stop-color="#033c73"
       id="stop124" />
  </linearGradient>
  <linearGradient
     id="c"
     gradientUnits="userSpaceOnUse"
     x1="315.177"
     x2="395.668"
     y1="91.731003"
     y2="121.027"
     gradientTransform="matrix(0.1066302,0,0,0.1066302,1.9032473,15.292779)">
    <stop
       offset=".22"
       stop-color="#033c73"
       id="stop127" />
    <stop
       offset=".758"
       stop-color="#909cca"
       id="stop129" />
  </linearGradient>
  <linearGradient
     id="d"
     gradientTransform="matrix(-0.1066302,0,0,-0.1066302,73.931734,-0.64566506)"
     gradientUnits="userSpaceOnUse"
     x1="201.397"
     x2="274.60101"
     y1="-241.23"
     y2="-241.23">
    <stop
       offset=".225"
       stop-color="#e08184"
       id="stop132" />
    <stop
       offset=".659"
       stop-color="#9b2023"
       id="stop134" />
  </linearGradient>
  <linearGradient
     id="e"
     gradientTransform="matrix(-0.1066302,0,0,-0.1066302,73.931734,-0.64566506)"
     gradientUnits="userSpaceOnUse"
     x1="237.795"
     x2="237.795"
     y1="-195.80299"
     y2="-282.91599">
    <stop
       offset=".05"
       stop-color="#cd071e"
       id="stop137" />
    <stop
       offset=".093"
       stop-color="#d1352a"
       id="stop139" />
    <stop
       offset=".19"
       stop-color="#da674d"
       id="stop141" />
    <stop
       offset=".288"
       stop-color="#e48f76"
       id="stop143" />
    <stop
       offset=".386"
       stop-color="#ebae9b"
       id="stop145" />
    <stop
       offset=".482"
       stop-color="#f1c5b9"
       id="stop147" />
    <stop
       offset=".577"
       stop-color="#f5d5ce"
       id="stop149" />
    <stop
       offset=".67"
       stop-color="#f7dfdc"
       id="stop151" />
    <stop
       offset=".758"
       stop-color="#f7e2e0"
       id="stop153" />
  </linearGradient>
  <g
     id="g164"
     style="fill:none"
     transform="matrix(0.13407832,0,0,0.13407832,1.9029507,12.423488)">
    <path
       d="M 276.257,54.396 298.55368,53.855336 302.37344,32.908219 270.591,32.728 c 0,0 -42.334,-1.666 -48.334,37 l -15.666,90 h 36.666 l 9.473,-52.666 h 36.861 l 2.795,-17.5 h -36.51 l 4.047,-22.5 c 0,0 0.668,-12.666 16.334,-12.666 z m -104,-20 h 37.666 l -22.332,125.333 h -37.334 z m -28.333,74.333 c 0,0 17.333,-62.333 -56.667,-62.333 0,0 -66,-2.334 -76.333,62 0,0 -9.667,51.333 63.333,51.333 h 56 l 4.333,-22 h -52 c 0,0 -36.666,0 -33.333,-29 z M 87.59,67.396 c 24.667,0 26.333,21.333 26.333,21.333 H 55.59 c 8.667,-21.333 32,-21.333 32,-21.333 z"
       id="path156"
       inkscape:connector-curvature="0"
       style="stroke:#000000;stroke-width:21"
       sodipodi:nodetypes="scccccccccccsccccccccsccccccccc" />
    <g
       id="g162"
       style="stroke-linecap:round;stroke-linejoin:round" />
  </g>
  <path
     d="m 38.943023,19.716812 h 3.351958 l 0.536313,-2.905209 h -4.647957 c 0,0 -5.676072,-0.223375 -6.480542,4.960897 l -2.100606,12.067048 h 4.916251 l 1.270124,-7.061368 h 4.942261 l 0.374747,-2.346371 h -4.895199 l 0.542615,-3.016761 c 0,0 0.08956,-1.698236 2.190035,-1.698236 z M 24.99888,17.035246 h 5.050193 l -2.994371,16.804438 h -5.005546 z m -3.798842,9.966443 c 0,0 2.323979,-8.357504 -7.597815,-8.357504 0,0 -8.8491695,-0.312939 -10.2346008,8.312856 0,0 -1.296135,6.882643 8.4915828,6.882643 H 19.36759 L 19.948551,30.88996 H 12.97648 c 0,0 -4.9161168,0 -4.4692337,-3.888271 z m -7.553167,-5.54186 c 3.30731,0 3.530684,2.860294 3.530684,2.860294 H 9.3563643 c 1.1619227,-2.860294 4.2905067,-2.860294 4.2905067,-2.860294 z"
     id="path180"
     inkscape:connector-curvature="0"
     style="fill:#ffffff;stroke-width:0.13407832" />
  <path
     d="m 10.353639,23.466714 c 0,0 3.810238,-3.0775 6.081792,0.293229 z m -1.0258334,4.03026 12.7497754,0.07335 -0.439643,2.711197 h -9.37918 c 0,-1.34e-4 -3.0041592,-0.513116 -2.9309524,-2.784538 z M 42.887608,20.389348 h -3.736897 c 0,0 -1.831778,-0.219888 -1.978461,1.538818 l -0.3663,1.978459 5.922352,-0.660093 0.458634,-2.711332 z"
     id="path182"
     inkscape:connector-curvature="0"
     style="stroke-width:0.13407832"
     sodipodi:nodetypes="cccccccccccccccc" />
</svg>
