<?xml version="1.0" encoding="UTF-8" standalone="no"?><!DOCTYPE svg PUBLIC "-//W3C//DTD SVG 1.1//EN" "http://www.w3.org/Graphics/SVG/1.1/DTD/svg11.dtd"><svg width="139" height="27" viewBox="0 0 522 100" version="1.1" xmlns="http://www.w3.org/2000/svg" xmlns:xlink="http://www.w3.org/1999/xlink" xml:space="preserve" xmlns:serif="http://www.serif.com/" style="fill-rule:evenodd;clip-rule:evenodd;stroke-linejoin:round;stroke-miterlimit:2;"><g><path d="M30.288,24.383l0,24.507l24.318,0c0,0 7.427,-0.736 7.671,-7.655c0.232,-6.814 -0.117,-10.433 -0.117,-10.433c0,0 -0.035,-6.495 -7.865,-6.755c-7.427,-0.243 -24.007,0.336 -24.007,0.336m40.414,-22.823c19.188,0.556 21.035,20.523 21.035,20.523l0.34,17.096c0.784,15.461 -10.777,21.107 -13.249,21.107c-2.479,0 -0.82,1.052 -0.82,1.052c0,0 6.995,0.888 11.633,8.614c4.648,7.758 3.036,11.938 3.036,11.938l0,16.42l-30.897,0l0,-14.552c-1.24,-12.074 -13.057,-10.731 -13.057,-10.731l-19.184,0l0,25.814l-28.97,0l0,-97.125c0,0 50.941,-0.692 70.133,-0.156" style="fill:#ee3d41;fill-rule:nonzero;"/><path d="M151.801,76.139c0,0 3.727,0.508 10.825,-0.824c9.494,-1.739 8.878,-12.701 8.878,-12.701c0,0 0.656,-9.57 0.361,-24.426c-0.265,-12.694 -8.619,-14.86 -8.619,-14.86c0,0 -4.527,-1.476 -11.445,-0.98c-6.931,-0.496 -11.454,0.98 -11.454,0.98c0,0 -8.361,2.168 -8.614,14.86c-0.296,14.857 0.357,24.426 0.357,24.426c0,0 -0.617,10.962 8.873,12.701c7.11,1.332 10.838,0.824 10.838,0.824m0,23.835c-8.77,0.223 -20.432,-1.044 -20.432,-1.044c-26.106,-3.5 -28.038,-23.211 -28.038,-23.211c-2.659,-10.141 -1.819,-42.347 -1.819,-42.347c0,0 -1.404,-29.873 35.12,-33.184c0,0 7.103,-0.012 15.169,-0.188c8.066,0.177 15.164,0.188 15.164,0.188c36.528,3.311 35.12,33.184 35.12,33.184c0,0 0.839,32.205 -1.819,42.347c0,0 -1.933,19.711 -28.046,23.211c0,0 -11.653,1.267 -20.419,1.044" style="fill:#ee3d41;fill-rule:nonzero;"/><path d="M208.196,2.042l85.052,0l0,22.655l-25.262,0c0,0 -1.995,0.06 -1.483,2.24l0,71.848l-30.641,0l0.075,-71.364c0,0 0.052,-3.088 -2.423,-2.724c-2.755,0.401 -25.306,0 -25.306,0l-0.012,-22.655Z" style="fill:#ee3d41;fill-rule:nonzero;"/><path d="M325.929,61.523l22.663,0l-12.069,-34.909l-10.594,34.909Zm-42.894,36.971l29.91,-96.462l46.421,0l32.496,96.522l-30.269,0l-6.318,-15.293l-35.28,0l-5.195,15.293l-31.765,-0.06Z" style="fill:#ee3d41;fill-rule:nonzero;"/><path d="M397.255,2.086l31.197,0l19.12,31.209l20.067,-31.889l30.269,0l-26.742,47.098l27.118,49.992l-29.353,0l-20.983,-33.441l-20.052,33.784l-31.577,0l27.121,-51.232l-26.186,-45.522l0.001,0.001Z" style="fill:#ee3d41;fill-rule:nonzero;"/><path d="M512.622,81.784c4.252,0 7.683,3.379 7.683,7.554c0,4.18 -3.431,7.543 -7.683,7.543c-4.255,0 -7.734,-3.363 -7.734,-7.543c0,-4.175 3.479,-7.554 7.734,-7.554m0,16.721c5.159,0 9.378,-4.135 9.378,-9.165c0,-5.071 -4.219,-9.167 -9.378,-9.167c-5.187,0 -9.417,4.096 -9.417,9.167c0,5.03 4.23,9.165 9.417,9.165" style="fill:#ee3d41;fill-rule:nonzero;"/><path d="M510.963,85.644l1.46,0c1.208,0 2.527,0.065 2.527,1.453c0,1.419 -1.319,1.487 -2.527,1.487l-1.46,0l0,-2.94Zm0,4.567l1.46,0l2.659,4.284l2.084,0l-2.784,-4.408c1.468,-0.159 2.532,-1.075 2.532,-2.894c0,-2.032 -1.204,-3.156 -3.771,-3.156l-4.16,0l0,10.458l1.98,0l0,-4.284Z" style="fill:#ee3d41;fill-rule:nonzero;"/></g></svg>